<svg xmlns="http://www.w3.org/2000/svg" viewBox="0 0 120 120" fill="none" role="img" aria-label="Rosera">
  <defs>
    <linearGradient id="roseraLogoGrad" x1="0%" y1="0%" x2="100%" y2="100%">
      <stop offset="0%" style="stop-color:#F5E0DC"/>
      <stop offset="45%" style="stop-color:#D4A5A5"/>
      <stop offset="100%" style="stop-color:#A67B7B"/>
    </linearGradient>
  </defs>
  <circle cx="60" cy="60" r="56" fill="url(#roseraLogoGrad)" opacity="0.15"/>
  <path fill="url(#roseraLogoGrad)" d="M60 18c-4 12-14 20-26 22 12 2 22 10 26 22 4-12 14-20 26-22-12-2-22-10-26-22zm0 62c-3 9-10 15-19 17 9 2 16 8 19 17 3-9 10-15 19-17-9-2-16-8-19-17z"/>
  <text x="60" y="72" text-anchor="middle" font-family="Georgia,serif" font-size="28" font-weight="700" fill="#9B6B6B">R</text>
</svg>
